<svg width="267.92" height="57.92" viewBox="0 0 267.92 57.92" xmlns="http://www.w3.org/2000/svg"><g id="svgGroup" stroke-linecap="round" fill-rule="evenodd" font-size="9pt" stroke="#19191a" stroke-width="0.25mm" fill="#466fa8" style="stroke:#19191a;stroke-width:0.25mm;fill:#466fa8"><path d="M 125.36 3.52 L 121.76 9.6 A 7.015 7.015 0 0 0 120.75 8.92 Q 119.462 8.193 117.4 7.56 A 19.662 19.662 0 0 0 114.35 6.9 Q 112.837 6.689 111.122 6.649 A 34.781 34.781 0 0 0 110.32 6.64 Q 107.76 6.64 105.56 7.16 A 12.212 12.212 0 0 0 103.392 7.882 A 9.784 9.784 0 0 0 101.76 8.8 Q 100.16 9.92 99.2 11.64 A 7.382 7.382 0 0 0 98.398 13.922 A 10.171 10.171 0 0 0 98.24 15.76 Q 98.24 17.424 98.649 18.652 A 5.896 5.896 0 0 0 98.88 19.24 Q 99.52 20.64 100.64 21.72 A 11.004 11.004 0 0 0 102.065 22.872 A 14.46 14.46 0 0 0 103.4 23.68 Q 105.04 24.56 106.96 25.52 Q 109.36 26.72 111.48 27.96 A 16.924 16.924 0 0 1 114.998 30.672 A 15.859 15.859 0 0 1 115.2 30.88 Q 116.8 32.56 117.72 34.8 A 11.467 11.467 0 0 1 118.38 37.111 Q 118.64 38.54 118.64 40.24 A 19.057 19.057 0 0 1 118.236 44.249 A 14.773 14.773 0 0 1 116.92 47.96 Q 115.2 51.28 112.2 53.48 A 19.928 19.928 0 0 1 107.78 55.903 A 24.874 24.874 0 0 1 105.08 56.8 Q 100.96 57.92 96.16 57.92 Q 92.96 57.92 90.36 57.48 A 39.3 39.3 0 0 1 88.207 57.057 Q 87.147 56.816 86.221 56.533 A 22.801 22.801 0 0 1 85.8 56.4 Q 84.299 55.91 83.15 55.397 A 17.112 17.112 0 0 1 82.48 55.08 A 21.164 21.164 0 0 1 81.693 54.667 Q 80.895 54.225 80.4 53.84 L 84 47.52 A 12.614 12.614 0 0 0 84.994 48.127 Q 86.103 48.743 87.745 49.443 A 55.414 55.414 0 0 0 88.8 49.88 A 16.337 16.337 0 0 0 91.755 50.735 Q 93.238 51.026 94.963 51.135 A 34.213 34.213 0 0 0 97.12 51.2 Q 99.6 51.2 102.04 50.68 A 14.152 14.152 0 0 0 105.019 49.705 A 12.341 12.341 0 0 0 106.4 48.96 Q 108.32 47.76 109.52 45.8 A 7.859 7.859 0 0 0 110.49 43.304 Q 110.706 42.288 110.719 41.117 A 13.645 13.645 0 0 0 110.72 40.96 A 8.874 8.874 0 0 0 110.559 39.227 A 6.639 6.639 0 0 0 109.96 37.48 A 8.904 8.904 0 0 0 107.962 34.913 A 10.07 10.07 0 0 0 107.88 34.84 A 16.168 16.168 0 0 0 106.143 33.519 A 20.559 20.559 0 0 0 104.76 32.68 Q 102.96 31.68 100.8 30.56 Q 98.96 29.6 97.08 28.48 Q 95.2 27.36 93.72 25.72 A 12.865 12.865 0 0 1 91.701 22.692 A 15.104 15.104 0 0 1 91.32 21.84 Q 90.473 19.778 90.406 16.97 A 20.464 20.464 0 0 1 90.4 16.48 Q 90.4 12.88 91.8 9.84 Q 93.2 6.8 95.92 4.6 A 17.644 17.644 0 0 1 99.695 2.29 A 23.005 23.005 0 0 1 102.6 1.2 Q 106.56 0 111.68 0 A 28.713 28.713 0 0 1 115.128 0.201 A 25.087 25.087 0 0 1 116.24 0.36 A 32.996 32.996 0 0 1 118.556 0.828 A 26.341 26.341 0 0 1 120.2 1.28 A 35.997 35.997 0 0 1 121.791 1.814 Q 122.532 2.083 123.177 2.361 A 21.17 21.17 0 0 1 123.36 2.44 A 19.841 19.841 0 0 1 124.068 2.768 Q 124.9 3.175 125.36 3.52 Z M 29.28 1.28 L 70.48 1.28 L 68.96 7.76 L 52.24 7.76 L 40.48 56.72 L 32.72 56.72 L 44.48 7.76 L 27.76 7.76 L 29.28 1.28 Z M 128.64 39.12 L 137.2 3.52 L 144.96 2.24 L 141.84 15.12 L 156 15.12 L 154.48 21.36 L 140.32 21.36 L 135.92 39.76 Q 135.185 42.639 135.013 44.955 A 18.422 18.422 0 0 0 134.96 46.32 A 7.649 7.649 0 0 0 135.074 47.688 Q 135.213 48.45 135.52 49.038 A 3.386 3.386 0 0 0 136.4 50.12 A 4.21 4.21 0 0 0 137.617 50.781 Q 138.789 51.205 140.56 51.269 A 17.88 17.88 0 0 0 141.2 51.28 Q 143.52 51.28 145.76 50.52 Q 147.606 49.894 148.746 49.349 A 11.584 11.584 0 0 0 149.2 49.12 L 149.76 55.44 Q 148.834 55.996 146.908 56.623 A 41.699 41.699 0 0 1 145.68 57 A 20.309 20.309 0 0 1 142.394 57.656 A 27.7 27.7 0 0 1 139.12 57.84 A 21.727 21.727 0 0 1 135.998 57.631 Q 132.333 57.098 130.32 55.2 A 8.463 8.463 0 0 1 128 51.282 Q 127.61 49.921 127.537 48.288 A 17.17 17.17 0 0 1 127.52 47.52 A 25.393 25.393 0 0 1 127.652 45.048 Q 127.779 43.764 128.026 42.282 A 64.312 64.312 0 0 1 128.64 39.12 Z M 260.08 48.56 L 260.72 54.88 Q 259.12 55.76 255.56 56.76 Q 252.355 57.661 248.144 57.75 A 44.331 44.331 0 0 1 247.2 57.76 A 24.152 24.152 0 0 1 243.957 57.554 Q 242.262 57.324 240.815 56.838 A 14.028 14.028 0 0 1 240.16 56.6 A 14.997 14.997 0 0 1 236.983 54.912 A 12.847 12.847 0 0 1 235.2 53.4 Q 233.2 51.36 232.24 48.64 A 17.173 17.173 0 0 1 231.28 42.904 A 19.045 19.045 0 0 1 231.28 42.88 Q 231.28 37.28 232.96 32.08 A 30.392 30.392 0 0 1 236.377 24.821 A 27.678 27.678 0 0 1 237.76 22.88 Q 240.88 18.88 245.36 16.52 Q 249.84 14.16 255.52 14.16 A 21.581 21.581 0 0 1 258.033 14.299 Q 259.327 14.451 260.439 14.769 A 12.035 12.035 0 0 1 261.16 15 Q 263.52 15.84 265 17.28 Q 266.48 18.72 267.2 20.6 Q 267.92 22.48 267.92 24.48 A 17.294 17.294 0 0 1 267.696 27.344 Q 267.429 28.93 266.846 30.247 A 10.124 10.124 0 0 1 266.56 30.84 Q 265.2 33.44 262.96 35.2 A 15.982 15.982 0 0 1 259.04 37.444 A 18.998 18.998 0 0 1 257.72 37.92 Q 254.72 38.88 251.48 39.44 Q 248.24 40 244.92 40.2 Q 241.6 40.4 238.64 40.56 Q 238.562 41.186 238.56 41.582 A 4.088 4.088 0 0 0 238.56 41.6 L 238.56 42.24 Q 238.56 44.08 239 45.72 Q 239.44 47.36 240.64 48.6 Q 241.84 49.84 243.96 50.56 Q 245.472 51.074 247.656 51.221 A 27.766 27.766 0 0 0 249.52 51.28 Q 251.04 51.28 252.68 51 Q 254.32 50.72 255.8 50.28 Q 257.28 49.84 258.44 49.4 Q 259.6 48.96 260.08 48.56 Z M 167.215 57.27 A 17.831 17.831 0 0 0 171.52 57.76 A 25.423 25.423 0 0 0 176.29 57.333 A 18.494 18.494 0 0 0 182.56 54.96 Q 187.12 52.16 190 47.84 Q 192.88 43.52 194.2 38.4 A 44.736 44.736 0 0 0 194.952 34.937 A 36.552 36.552 0 0 0 195.52 28.64 A 24.388 24.388 0 0 0 195.517 28.236 Q 195.477 25.867 194.975 23.862 A 12.867 12.867 0 0 0 191.8 17.96 A 12.137 12.137 0 0 0 185.825 14.57 A 17.831 17.831 0 0 0 181.52 14.08 A 25.423 25.423 0 0 0 176.75 14.507 A 18.494 18.494 0 0 0 170.48 16.88 Q 165.92 19.68 163.04 24 Q 160.16 28.32 158.84 33.44 A 44.736 44.736 0 0 0 158.088 36.903 A 36.552 36.552 0 0 0 157.52 43.2 A 24.388 24.388 0 0 0 157.523 43.604 Q 157.563 45.973 158.065 47.978 A 12.867 12.867 0 0 0 161.24 53.88 A 12.137 12.137 0 0 0 167.215 57.27 Z M 0 56.72 L 13.28 1.28 L 21.04 1.28 L 7.76 56.72 L 0 56.72 Z M 231.92 15.44 L 229.76 21.92 A 14.59 14.59 0 0 0 227.925 21.33 A 19.73 19.73 0 0 0 226.08 20.96 A 27.243 27.243 0 0 0 223.054 20.66 A 23.788 23.788 0 0 0 222.08 20.64 Q 220.4 20.64 218.76 20.88 A 20.943 20.943 0 0 0 217.409 21.121 Q 216.799 21.252 216.266 21.411 A 11.69 11.69 0 0 0 215.92 21.52 L 207.44 56.72 L 200 56.72 L 209.6 16.72 A 44.514 44.514 0 0 1 214.614 15.3 A 51.75 51.75 0 0 1 216.48 14.92 Q 220.16 14.24 223.84 14.24 A 27.478 27.478 0 0 1 224.826 14.259 Q 225.381 14.279 226 14.32 Q 227.2 14.4 228.36 14.6 Q 229.52 14.8 230.48 15 Q 231.312 15.173 231.783 15.377 A 2.673 2.673 0 0 1 231.92 15.44 Z M 172.8 51.44 Q 176.4 51.44 179.24 49.36 A 17.875 17.875 0 0 0 183.601 44.735 A 20.715 20.715 0 0 0 184.04 44.04 Q 186 40.8 187.04 36.88 A 30.992 30.992 0 0 0 187.978 31.604 A 26.936 26.936 0 0 0 188.08 29.28 A 15.332 15.332 0 0 0 187.872 26.674 Q 187.625 25.246 187.086 24.098 A 7.766 7.766 0 0 0 186.32 22.8 A 5.361 5.361 0 0 0 183.776 20.945 Q 182.853 20.605 181.702 20.477 A 13.265 13.265 0 0 0 180.24 20.4 Q 176.64 20.4 173.8 22.48 A 17.875 17.875 0 0 0 169.439 27.105 A 20.715 20.715 0 0 0 169 27.8 Q 167.04 31.04 166 34.96 A 30.992 30.992 0 0 0 165.062 40.237 A 26.936 26.936 0 0 0 164.96 42.56 A 15.332 15.332 0 0 0 165.168 45.167 Q 165.415 46.594 165.954 47.743 A 7.766 7.766 0 0 0 166.72 49.04 A 5.361 5.361 0 0 0 169.264 50.895 Q 170.187 51.236 171.338 51.363 A 13.265 13.265 0 0 0 172.8 51.44 Z M 239.6 34.88 Q 244.24 34.72 248.08 34.28 Q 251.515 33.887 254.118 32.981 A 19.285 19.285 0 0 0 254.72 32.76 A 13.025 13.025 0 0 0 256.862 31.714 Q 258.178 30.904 259.08 29.84 Q 260.64 28 260.64 25.04 Q 260.64 24.32 260.36 23.52 Q 260.08 22.72 259.4 22.04 Q 258.81 21.45 257.83 21.041 A 7.585 7.585 0 0 0 257.52 20.92 Q 256.32 20.48 254.56 20.48 Q 251.76 20.48 249.32 21.68 Q 246.88 22.88 244.96 24.84 A 18.949 18.949 0 0 0 241.94 28.918 A 21.405 21.405 0 0 0 241.68 29.4 Q 240.32 32 239.6 34.88 Z" vector-effect="non-scaling-stroke"/></g></svg>